<svg xmlns="http://www.w3.org/2000/svg" width="151" height="140">
    <path fill="#E5E6E6" fill-rule="evenodd" d="M12.718 70.161h1.724c.011-5.698 4.727-10.372 10.639-10.375 5.903.003 10.62 4.677 10.63 10.375-.01 5.69-4.728 10.374-10.63 10.376-5.911-.003-10.628-4.686-10.639-10.376h-3.448c.006 7.676 6.337 13.83 14.087 13.844 7.742-.014 14.072-6.168 14.079-13.844-.006-7.684-6.338-13.829-14.079-13.843-7.748.014-14.081 6.159-14.087 13.843h1.724zm126.233-2.396l-101.537.663.044 3.468 101.537-.665-.044-3.466zM45.38 24.833h1.725c.01-5.691 4.735-10.368 10.639-10.372 5.903.004 10.628 4.681 10.639 10.372-.011 5.697-4.736 10.373-10.639 10.377-5.904-.004-10.629-4.68-10.639-10.377h-3.449c.006 7.686 6.348 13.83 14.088 13.844 7.74-.014 14.08-6.158 14.087-13.844-.007-7.681-6.348-13.825-14.087-13.839-7.74.014-14.081 6.158-14.088 13.839h1.724zm93.593-1.733H70.107v3.468h68.866V23.1zM45.38 114.162h1.725c.01-5.693 4.736-10.373 10.639-10.376 5.902.003 10.628 4.683 10.639 10.376-.011 5.697-4.736 10.372-10.639 10.375-5.904-.003-10.629-4.678-10.639-10.375h-3.449c.006 7.686 6.348 13.829 14.088 13.843 7.74-.014 14.08-6.157 14.087-13.843-.007-7.682-6.347-13.83-14.087-13.844-7.741.014-14.081 6.162-14.088 13.844h1.724zm93.593-1.735H70.107v3.468h68.866v-3.468z" opacity=".2"/>
</svg>
