<svg xmlns="http://www.w3.org/2000/svg" width="89" height="122">
    <path fill="#E5E6E6" fill-rule="evenodd" d="M75.547 59.941h-1.46c-.009 4.821-3.999 8.776-9.002 8.779-4.994-.003-8.986-3.958-8.995-8.779.009-4.814 4.002-8.778 8.995-8.78 5.002.003 8.993 3.966 9.002 8.78h2.918C77 53.446 71.643 48.24 65.085 48.227c-6.551.013-11.907 5.219-11.913 11.714.006 6.502 5.363 11.701 11.913 11.714 6.556-.013 11.916-5.212 11.92-11.714h-1.458zm-64.505 2.028l43.608-.562-.037-2.933-43.609.561.038 2.934zm36.867 36.327H46.45c-.009 4.816-4.007 8.772-9.002 8.776-4.995-.004-8.993-3.96-9.002-8.776.009-4.822 4.007-8.777 9.002-8.78 4.995.003 8.993 3.958 9.002 8.78h2.918c-.005-6.504-5.371-11.703-11.92-11.714-6.549.011-11.914 5.21-11.92 11.714.006 6.5 5.371 11.698 11.92 11.71 6.549-.012 11.914-5.21 11.92-11.71h-1.459zm-36.886 1.467h15.964v-2.935H11.023v2.935zm36.886-77.054H46.45c-.009 4.817-4.008 8.778-9.002 8.781-4.995-.003-8.993-3.964-9.002-8.781.009-4.819 4.007-8.775 9.002-8.778 4.995.003 8.993 3.959 9.002 8.778h2.918c-.005-6.503-5.371-11.702-11.92-11.713-6.549.011-11.914 5.21-11.92 11.713.006 6.501 5.37 11.702 11.92 11.714 6.55-.012 11.914-5.213 11.92-11.714h-1.459zm-36.886 1.468h15.964v-2.934H11.023v2.934z" opacity=".2"/>
</svg>
